<?xml version="1.0" encoding="UTF-8"?><!DOCTYPE svg PUBLIC "-//W3C//DTD SVG 1.1//EN" "http://www.w3.org/Graphics/SVG/1.1/DTD/svg11.dtd">
<svg width="512px" height="512px" version="1.1" xmlns="http://www.w3.org/2000/svg">
<path d="M 256,0 C 114.6,0 0,114.6 0,256 0,397.4 114.6,512 256,512 c 141.4,0 256,-114.6 256,-256 C 512,114.6 397.4,0 256,0 z m 1.2,43.5 c 117.4,0 212.6,95.2 212.6,212.6 0,117.4 -95.2,212.6 -212.6,212.6 -117.4,0 -212.6,-95.2 -212.6,-212.6 0,-117.4 95.2,-212.6 212.6,-212.6 z" fill="#8dd4df"/>
<path d="M 289.9,2.3 282.1,45 c 105.7,12.3 187.7,102 187.7,210.9 0,108.5 -81.4,198 -186.6,210.8 l 5.9,42.8 C 414.9,493.2 512,385.8 512,256 512,126 415.2,18.9 289.9,2.3 z" fill="#24afc4"/>
<path d="M 221.3,2.4 C 96.3,19.4 0,126.3 0,256 0,386.8 98.6,494.8 225.7,509.8 l 6.2,-43 C 126.4,454.3 44.7,364.6 44.7,256 44.7,147.8 125.5,58.5 230.1,45.2 L 221.3,2.4 z" fill="#24afc4"/>
<path d="m 120.31004,366.72981 c -10.004,-3.19866 -16.08871,-9.18447 -19.7737,-19.45226 -4.387417,-12.22501 -4.236331,-19.23746 1.82563,-84.73412 2.71911,-29.37856 5.27541,-55.33978 5.68068,-57.69161 4.51287,-26.18861 25.00253,-49.30512 50.885,-57.4086 11.26035,-3.52546 8.93751,-3.44306 97.03371,-3.44306 88.09618,0 85.77336,-0.0823 97.0337,3.44306 25.95326,8.12564 46.35945,31.16443 50.89454,57.46037 1.56922,9.09895 10.61496,111.09839 10.61496,119.69408 0,19.84904 -4.55351,31.67674 -14.72638,38.25178 C 394.47662,366.27601 388.63296,368 382.31974,368 c -6.13162,0 -10.63006,-1.23285 -17.07949,-4.68083 -11.22732,-6.00235 -17.36646,-11.70876 -44.67976,-41.53048 l -22.74795,-24.83709 -41.85118,0 -41.8512,0 -22.74794,24.83709 c -22.26618,24.31108 -27.65702,29.71488 -35.7987,35.8848 -5.09742,3.8629 -12.70049,7.94037 -17.31325,9.28495 -4.79838,1.3987 -13.18495,1.29182 -17.94023,-0.22863 z m 74.47075,-107.85988 c 17.17721,-5.98362 28.94565,-22.46275 28.94565,-40.53208 0,-15.90042 -9.18313,-30.92902 -23.04722,-37.71783 -7.24162,-3.54599 -12.05665,-4.71608 -19.35822,-4.70413 -11.67899,0.0191 -20.79638,3.61925 -29.19689,11.52889 -8.94468,8.422 -13.31968,18.25044 -13.45873,30.23521 -0.0917,7.90662 0.82561,12.10067 4.17283,19.07783 5.43967,11.3387 15.49582,19.72072 27.60192,23.00676 5.58828,1.51688 18.8133,1.03078 24.34066,-0.89465 z m -21.92851,-9.7225 c -0.24121,-0.24122 -0.4431,-4.90376 -0.44865,-10.36123 -0.005,-5.45747 -0.24021,-10.28487 -0.52147,-10.72758 -0.35992,-0.56649 -3.62096,-0.85878 -11.00901,-0.98678 l -10.49763,-0.18187 0,-8.55212 0,-8.55212 10.85463,-0.32892 10.85463,-0.32894 0.18186,-10.49761 c 0.12799,-7.38805 0.42029,-10.6491 0.98678,-11.00901 1.44893,-0.92055 15.36329,-0.63067 16.16621,0.33677 0.43435,0.52338 0.79301,4.90072 0.90285,11.01908 l 0.18225,10.15077 10.15077,0.18224 c 6.11837,0.10983 10.49571,0.4685 11.01907,0.90287 0.62507,0.51874 0.86833,2.79487 0.86833,8.12487 0,5.33001 -0.24326,7.60613 -0.86833,8.12487 -0.52336,0.43437 -4.9007,0.79303 -11.01907,0.90288 l -10.15077,0.18223 -0.18225,10.15077 c -0.10982,6.11836 -0.4685,10.49572 -0.90285,11.01909 -0.5218,0.62873 -2.84638,0.86831 -8.42472,0.86831 -4.23724,0 -7.90142,-0.19736 -8.14263,-0.43857 z m 162.90547,6.78617 c 2.91351,-1.21733 6.17526,-5.10777 7.07085,-8.43373 2.38775,-8.86746 -6.19236,-17.43312 -15.0684,-15.04304 -3.30814,0.89078 -7.19902,4.15816 -8.41378,7.06546 -1.8716,4.4794 -0.55279,11.07493 2.82535,14.12976 3.46767,3.1358 9.22677,4.10295 13.58598,2.28155 z m -25.19438,-26.67805 c 1.26637,-0.64185 3.1906,-2.42432 4.27607,-3.961 1.68324,-2.38296 1.97356,-3.39753 1.97356,-6.89694 0,-3.37508 -0.32108,-4.58816 -1.80983,-6.83782 -2.29911,-3.47418 -5.98446,-5.39227 -10.3605,-5.39227 -5.44746,0 -9.47976,2.59889 -11.48738,7.40382 -4.51897,10.81542 6.8338,21.04396 17.40808,15.68421 z m 51.64166,0.4278 c 2.01681,-0.99889 4.9422,-3.89998 6.02641,-5.97638 0.53629,-1.02701 0.97505,-3.44311 0.97505,-5.36912 0,-7.1669 -5.04206,-12.17033 -12.26429,-12.17033 -4.92645,0 -9.01,2.43742 -11.24229,6.71035 -1.20621,2.30891 -1.19175,8.63358 0.0251,10.98677 1.29166,2.49781 5.2479,5.87818 7.44655,6.36266 0.98837,0.21779 2.09308,0.49405 2.4549,0.61393 0.96064,0.31828 5.05208,-0.40184 6.57855,-1.15788 z m -24.90887,-26.86051 c 6.60203,-4.08028 7.86425,-12.90563 2.68884,-18.80011 -2.55674,-2.91198 -5.38026,-4.16942 -9.36211,-4.16942 -6.80446,0 -12.16525,5.32976 -12.16525,12.09483 0,5.37786 2.53047,9.28977 7.56534,11.69547 3.27415,1.56442 7.96667,1.22277 11.27318,-0.82077 z" fill="#24afc4"/>
</svg>